<?xml version="1.0" encoding="UTF-8" standalone="no"?>
<!DOCTYPE svg PUBLIC "-//W3C//DTD SVG 1.1//EN" "http://www.w3.org/Graphics/SVG/1.1/DTD/svg11.dtd">
<svg version="1.1" xmlns="http://www.w3.org/2000/svg" xmlns:xlink="http://www.w3.org/1999/xlink" preserveAspectRatio="xMidYMid meet" viewBox="147.09917355371906 59.90909090909088 109.04132231404961 94.9090909090909" width="105.04" height="90.91"><defs><path d="M193.55 83.64C193.55 96.18 183.37 106.36 170.83 106.36C158.28 106.36 148.1 96.18 148.1 83.64C148.1 71.09 158.28 60.91 170.83 60.91C183.37 60.91 193.55 71.09 193.55 83.64Z" id="b4S0V41RcP"></path><radialGradient id="gradientb2UUnNC5mE" gradientUnits="userSpaceOnUse" cx="174.13" cy="74.96" r="57.12"><stop style="stop-color: #ffde00;stop-opacity: 1" offset="0%"></stop><stop style="stop-color: #010000;stop-opacity: 1" offset="100%"></stop></radialGradient><path d="M253.14 83.64C253.14 96.18 242.96 106.36 230.41 106.36C217.87 106.36 207.69 96.18 207.69 83.64C207.69 71.09 217.87 60.91 230.41 60.91C242.96 60.91 253.14 71.09 253.14 83.64Z" id="a2BUSVLy4G"></path><radialGradient id="gradiente2oMSOXNlt" gradientUnits="userSpaceOnUse" cx="233.72" cy="74.96" r="57.12"><stop style="stop-color: #ff1b1b;stop-opacity: 1" offset="0%"></stop><stop style="stop-color: #010000;stop-opacity: 1" offset="100%"></stop></radialGradient><path d="M221.82 129.09C221.82 141.63 211.63 151.82 199.09 151.82C186.55 151.82 176.36 141.63 176.36 129.09C176.36 116.55 186.55 106.36 199.09 106.36C211.63 106.36 221.82 116.55 221.82 129.09Z" id="e1GdkbUT0o"></path><radialGradient id="gradiente1VARdtya1" gradientUnits="userSpaceOnUse" cx="202.4" cy="120.41" r="57.12"><stop style="stop-color: #48ff00;stop-opacity: 1" offset="0%"></stop><stop style="stop-color: #010000;stop-opacity: 1" offset="100%"></stop></radialGradient></defs><g><g><use xlink:href="#b4S0V41RcP" opacity="1" fill="url(#gradientb2UUnNC5mE)"></use></g><g><use xlink:href="#a2BUSVLy4G" opacity="1" fill="url(#gradiente2oMSOXNlt)"></use></g><g><use xlink:href="#e1GdkbUT0o" opacity="1" fill="url(#gradiente1VARdtya1)"></use></g></g></svg>