<?xml version="1.0" encoding="UTF-8" standalone="no"?>
<!DOCTYPE svg PUBLIC "-//W3C//DTD SVG 1.1//EN" "http://www.w3.org/Graphics/SVG/1.1/DTD/svg11.dtd">
<svg version="1.1" xmlns="http://www.w3.org/2000/svg" xmlns:xlink="http://www.w3.org/1999/xlink" preserveAspectRatio="xMidYMid meet" viewBox="0 0 110 110" width="110" height="110"><defs><path d="M47.93 34.3C47.93 46.84 37.75 57.02 25.21 57.02C12.66 57.02 2.48 46.84 2.48 34.3C2.48 21.75 12.66 11.57 25.21 11.57C37.75 11.57 47.93 21.75 47.93 34.3Z" id="h7igrUQAUR"></path><radialGradient id="gradientaeZiseZjC" gradientUnits="userSpaceOnUse" cx="28.51" cy="25.62" r="57.12"><stop style="stop-color: #ffde00;stop-opacity: 1" offset="0%"></stop><stop style="stop-color: #010000;stop-opacity: 1" offset="100%"></stop></radialGradient><path d="M107.52 34.3C107.52 46.84 97.34 57.02 84.79 57.02C72.25 57.02 62.07 46.84 62.07 34.3C62.07 21.75 72.25 11.57 84.79 11.57C97.34 11.57 107.52 21.75 107.52 34.3Z" id="ozzAwBjjn"></path><radialGradient id="gradientdqZN23w8U" gradientUnits="userSpaceOnUse" cx="88.1" cy="25.62" r="57.12"><stop style="stop-color: #ff1b1b;stop-opacity: 1" offset="0%"></stop><stop style="stop-color: #010000;stop-opacity: 1" offset="100%"></stop></radialGradient><path d="M76.2 79.75C76.2 92.3 66.01 102.48 53.47 102.48C40.93 102.48 30.74 92.3 30.74 79.75C30.74 67.21 40.93 57.02 53.47 57.02C66.01 57.02 76.2 67.21 76.2 79.75Z" id="c61LGE7rjN"></path><radialGradient id="gradientaQQdGJXbD" gradientUnits="userSpaceOnUse" cx="56.78" cy="71.07" r="57.12"><stop style="stop-color: #48ff00;stop-opacity: 1" offset="0%"></stop><stop style="stop-color: #010000;stop-opacity: 1" offset="100%"></stop></radialGradient></defs><g><g><g><use xlink:href="#h7igrUQAUR" opacity="1" fill="url(#gradientaeZiseZjC)"></use></g><g><use xlink:href="#ozzAwBjjn" opacity="1" fill="url(#gradientdqZN23w8U)"></use></g><g><use xlink:href="#c61LGE7rjN" opacity="1" fill="url(#gradientaQQdGJXbD)"></use></g></g></g></svg>